<svg xmlns="http://www.w3.org/2000/svg" width="24" height="24" viewBox="0 0 24 24"><path d="M8.1 3a.93.93 0 01.625.237.914.914 0 01.325.563l.65 3.5c.034.266.025.491-.025.675-.05.183-.141.342-.275.475L6.975 10.9c.333.617.729 1.213 1.187 1.787.458.575.963 1.13 1.513 1.663.516.516 1.058.995 1.625 1.437.566.442 1.166.846 1.8 1.213l2.35-2.35a1.4 1.4 0 01.587-.338c.242-.074.48-.095.713-.062l3.45.7c.233.067.425.188.575.363.15.175.225.37.225.587v4.05c0 .3-.1.55-.3.75-.2.2-.45.3-.75.3-2.083 0-4.141-.454-6.175-1.362-2.033-.909-3.884-2.196-5.55-3.863-1.667-1.666-2.954-3.517-3.863-5.55C3.454 8.19 3 6.133 3 4.05c0-.3.1-.55.3-.75.2-.2.45-.3.75-.3H8.1zm6.875 14.95a12.387 12.387 0 004.025 1v-2.2l-2.35-.475-1.675 1.675zM5.025 5c.084.683.2 1.359.35 2.025.15.667.367 1.325.65 1.975l1.65-1.65L7.25 5H5.025z"/></svg>
